<?xml version="1.0" encoding="UTF-8"?>
<svg width="1022.8" height="694.69" version="1.1" viewBox="0 0 1022.8125 694.6875" xmlns="http://www.w3.org/2000/svg">
 <path d="m208.59 694.06c-25.315-1.5746-77.656-19.345-91.406-31.034-1.8047-1.5341-4.6526-3.0866-6.3287-3.4502-1.6761-0.3635-4.7746-2.1039-6.8856-3.8675-2.1109-1.7636-4.3886-3.2066-5.0614-3.2066-0.67284 0-3.4806-1.5205-6.2394-3.3789s-6.7036-4.232-8.7661-5.2747c-29.548-14.938-79.219-72.349-79.219-91.564 0-1.9853-0.68702-5.4556-1.5267-7.7118-0.97377-2.6165-1.6508-8.007-1.8694-14.884-0.18845-5.9297-0.38068-11.625-0.42717-12.656-0.08586-1.9045 1.9554-17.127 3.8971-29.062 0.58719-3.6094 2.1043-10.148 3.3714-14.531 3.7602-13.007 6.9989-23.562 8.9658-29.221 2.2103-6.3591 1.4787-9.6558-3.6277-16.345-11.244-14.731-11.691-35.837-0.8988-42.507 18.927-11.698 46.474-15.68 71.803-10.382 2.3203 0.4854 8.4375 1.5597 13.594 2.3873 10.88 1.7462 24.228 4.6483 30.938 6.7262 2.5781 0.7984 8.4844 2.4444 13.125 3.6578 15.489 4.0501 18.698 5.0302 27.188 8.3048 4.6406 1.79 14.977 5.6224 22.969 8.5165s22.547 9.2096 32.344 14.034c9.7969 4.8248 20.133 9.7936 22.969 11.042 2.8359 1.2482 10.582 5.2825 17.213 8.9651s12.289 6.6956 12.574 6.6956c8.5821 0 86.014 57.759 94.38 70.401 3.0929 4.6737 4.598 4.6101 7.6498-0.32335 1.3556-2.1914 3.8212-5.4609 5.4792-7.2656s4.993-6.0234 7.4112-9.375c12.341-17.105 22.267-28.998 47.005-56.322 7.7384-8.5474 17.445-19.505 21.57-24.349 4.125-4.8447 10.875-12.419 15-16.832 21.683-23.195 37.23-40.214 39.3-43.02 4.0003-5.4221 35.915-40.19 52.159-56.821 6.5469-6.7031 12.166-13.045 12.487-14.094s12.239-13.072 26.484-26.719 28.359-27.766 31.364-31.375c3.0049-3.6094 14.437-15 25.405-25.312s21.64-20.459 23.715-22.548c2.0753-2.0891 7.1482-6.691 11.273-10.226 4.125-3.5354 9.1904-8.1543 11.257-10.264 4.0429-4.1285 21.051-19.063 26.532-23.297 1.8411-1.4223 11.637-9.962 21.769-18.977 10.132-9.0152 20.072-17.594 22.088-19.065 2.0164-1.4707 6.4084-5.3483 9.76-8.6171 5.9116-5.7655 14.111-12.129 27.656-21.461 3.6094-2.487 8.5677-6.1837 11.019-8.2149 2.4508-2.0312 7.7748-5.6673 11.831-8.08 4.0562-2.4128 7.9012-5.021 8.5444-5.7961 1.5826-1.9069 10.67-7.0461 12.46-7.0461 0.7908 0 3.2051-1.4766 5.3652-3.2812 2.1601-1.8047 4.4804-3.2812 5.1562-3.2812s2.9996-1.4794 5.1638-3.2875 5.0462-3.5665 6.4045-3.9074c1.3583-0.34091 10.128-4.3011 19.489-8.8003 9.3608-4.4993 18.853-8.4902 21.094-8.8688 2.2407-0.37856 5.767-1.3024 7.8363-2.053 10.098-3.6628 23.436-5.7544 39.387-6.1765 12.174-0.32216 47.344 23.393 47.344 31.924 0 0.66244 1.1069 3.3213 2.4597 5.9086 3.1577 6.0389 2.7965 12.115-1.0688 17.979-1.4508 2.2007-3.5361 5.3509-4.634 7.0005-16.452 24.717-49.645 9.8142-38.35-17.218 4.8358-11.574 3.1666-16.365-4.5472-13.052-1.6932 0.72712-6.8755 2.4736-11.516 3.8812-10.267 3.1142-21.197 7.8226-38.111 16.418-7.0391 3.5771-13.342 6.5039-14.006 6.5039-2.0371 0-18.245 9.9982-41.633 25.682-9.4861 6.3612-29.223 21.137-37.031 27.723-2.8359 2.392-7.2656 5.8794-9.8438 7.7496-2.5781 1.8703-7.0078 5.798-9.8438 8.7283s-7.2656 7.0132-9.8438 9.0731c-2.5781 2.0599-8.3442 7.1044-12.814 11.21-4.4693 4.1056-11.43 9.8939-15.469 12.863s-13.281 11.061-20.538 17.982c-7.2576 6.9209-19.46 18.279-27.115 25.24-11.372 10.339-29.943 28.452-72.369 70.583-9.1122 9.0488-10.96 11.007-12.342 13.083-0.84716 1.2715-4.1863 4.5057-7.4203 7.1869-3.234 2.6813-6.8982 6.4878-8.1425 8.459-1.2444 1.9712-4.7155 6.1133-7.7137 9.2046-24.127 24.877-58.744 61.265-62.205 65.39-1.7312 2.0625-6.9666 7.7667-11.634 12.676-14.385 15.13-32.594 35.233-33.692 37.196-1.2236 2.1876-7.3797 9.2804-21.709 25.012-5.6938 6.251-15.296 17.061-21.338 24.022-6.0418 6.9609-13.933 15.82-17.535 19.688-3.6026 3.8672-7.272 8.0859-8.1541 9.375-0.88219 1.2891-5.8406 7.2277-11.019 13.197-5.178 5.9692-12.579 14.745-16.446 19.502-3.8672 4.7568-9.7458 11.847-13.064 15.755l-6.0324 7.1068-1.083 9.6129c-1.6891 14.993-14.445 32.298-23.833 32.331-5.0386 0.0181-8.6205 2.1314-12.382 7.3055-3.8024 5.2308-11.079 13.219-28.354 31.127-4.7254 4.8984-10.679 11.351-13.231 14.339-3.0075 3.5218-7.1192 6.8696-11.69 9.5182-3.8778 2.2471-8.3162 5.4289-9.8631 7.0706-3.0583 3.2458-17.689 10.72-22.969 11.734-1.8047 0.34654-6.9173 1.8581-11.361 3.3591-8.4315 2.8477-13.61 3.303-20.219 1.7774-3.0295-0.69928-5.9916-0.48034-12.994 0.96041-4.9884 1.0264-9.7616 1.7901-10.607 1.6972-0.84559-0.0929-3.6468-0.30018-6.2249-0.46054zm10.312-10.62c0-0.83744-1.5168-1.8387-3.75-2.4754-2.0625-0.58801-8.6016-2.4348-14.531-4.1039-15.749-4.4331-35.053-10.912-43.264-14.521-3.9439-1.7333-8.8942-3.6155-11.001-4.1827-4.9492-1.3327-8.8756-4.6457-8.0514-6.7935 1.2288-3.2023 4.0238-2.7194 17.233 2.978 7.2394 3.1224 16.02 6.2919 19.514 7.0432 3.4931 0.75138 12.351 3.4779 19.684 6.0589 24.015 8.4526 36.355 10.561 36.355 6.2111 0-1.4206-1.1236-2.0972-5.1562-3.1047-6.2918-1.572-28.552-8.7568-35.625-11.498-2.8359-1.0993-7.2656-2.7687-9.8438-3.7098-6.7001-2.4459-22.286-8.8411-23.672-9.7128-1.8556-1.1675-1.3909-5.131 0.73504-6.2688 1.5507-0.8299 3.1707-0.41407 8.6719 2.226 18.113 8.6927 28.97 12.791 33.885 12.791 3.1114 0 18.28 5.5239 20.753 7.5575 3.5607 2.9283 20.365 4.6131 23.432 2.3494 2.6623-1.965 0.86108-3.2268-6.2219-4.3587-8.6672-1.3851-21.562-5.5345-24.359-7.8383-2.5148-2.0716-14.552-6.7248-30.412-11.756-10.652-3.3794-13.594-4.9698-13.594-7.3502 0-4.3565 3.7036-4.9211 10.312-1.5721 3.0985 1.5701 6.1713 2.3438 9.3091 2.3438 5.8241 0 13.254 2.8554 18 6.9176 2.1764 1.8629 5.948 3.7524 9.4808 4.7495 3.2266 0.91074 8.1869 2.4191 11.023 3.3518 10.319 3.3942 30.305 5.575 33.825 3.691 4.5776-2.4499 1.9207-4.9773-6.6373-6.3139-21.97-3.4312-26.506-4.679-29.706-8.172-2.6328-2.8739-3.5762-3.2892-7.5119-3.3064-5.3973-0.0237-17.249-3.9834-18.563-6.202-1.9928-3.3637-4.2195-4.8954-9.2375-6.3542-7.3011-2.1225-9.9138-6.514-5.3338-8.9651 1.2156-0.65058 5.2936 0.96568 16.51 6.5437 8.271 4.1131 18.24 8.3071 22.416 9.43 4.136 1.1123 10.799 3.216 14.808 4.6749 4.0082 1.4589 10.547 3.1384 14.531 3.7323 3.984 0.59385 9.5554 1.4161 12.381 1.8273 8.1666 1.1883 12.257-1.5589 6.5061-4.3696-2.2171-1.0836-15.577-4.2868-22.743-5.4531-5.221-0.84967-7.6066-2.1603-9.3721-5.1491-2.1916-3.7101-9.3617-6.1845-12.187-4.2057-4.1894 2.9344-13.187 0.26661-17.51-5.1918-1.6862-2.129-3.9899-3.8475-5.6451-4.211-3.581-0.78652-5.2004-3.5332-3.2394-5.4942 1.5733-1.5733 9.8902 0.72739 17.974 4.972 2.1567 1.1325 6.6154 2.4406 9.9082 2.9069 3.2928 0.46632 10.2 2.518 15.35 4.5594 5.1498 2.0413 12.925 4.6126 17.279 5.7139s9.4153 3.0296 11.248 4.2851c2.0014 1.3713 4.6694 2.2827 6.6821 2.2827 6.2053 0 7.4371-5.1771 1.6993-7.1417-4.9048-1.6793-16.854-4.8192-20.91-5.4946-2.182-0.36333-4.9951-1.8808-7.2303-3.9002-4.9361-4.4595-11.643-6.986-15.229-5.7362-6.1072 2.129-15.897-1.3559-18.009-6.4107-1.0949-2.6204-2.074-3.2756-6.9322-4.6387-6.5371-1.8342-9.49-4.3618-7.9568-6.811 1.8922-3.0227 5.3045-2.2082 18.295 4.367 8.8267 4.4677 14.673 6.8062 18.819 7.5284 3.3084 0.57614 10.203 2.9238 15.321 5.2171 14.393 6.449 36.193 11.386 39.774 9.0076 2.8371-1.8838-0.24086-4.198-7.1263-5.3578-17.366-2.9252-25.884-5.993-29.218-10.522-3.5473-4.8194-6.7721-5.9886-11.624-4.2145-7.1134 2.6007-21.145-4.2489-18.568-9.064 1.596-2.9822 3.6672-3.2606 7.8543-1.0558 2.1117 1.112 7.1301 2.8578 11.152 3.8795 4.0219 1.0218 7.6374 2.0585 8.0344 2.3039s1.9127 0.66212 3.3681 0.92602c1.4554 0.26391 3.5529 1.3317 4.6612 2.373 2.6952 2.532 32.64 12.436 36.476 12.064 6.1995-0.60168 3.8387-3.7499-4.5392-6.0534-12.565-3.4548-23.297-6.6351-26.077-7.7278-1.4515-0.57058-3.4972-1.0374-4.5458-1.0374-1.9364 0-2.9282-0.38785-14.126-5.5243-3.4712-1.5922-9.3775-3.7329-13.125-4.7571-12.39-3.3862-17.96-5.347-27.679-9.7437-5.2884-2.3924-9.7982-4.3498-10.022-4.3498-1.0375 0-18.438-8.5562-23.027-11.323-4.8279-2.9108-12.072-6.7953-27.649-14.825-3.6094-1.8607-8.4175-4.5877-10.685-6.06-2.2672-1.4723-8.5953-5.2034-14.062-8.2915-10.159-5.7383-13.069-7.5353-20.187-12.469-11.052-7.6604-19.395-13.768-27.602-20.207-4.9647-3.8952-10.925-8.3856-13.245-9.9785-3.989-2.7385-12.487-10.668-17.946-16.744-1.3626-1.5167-2.9513-3.1796-3.5306-3.6952-0.57925-0.51563-3.596-4.3125-6.704-8.4375-8.0297-10.657-8.2938-10.936-10.054-10.597-4.3014 0.82838 5.186 14.812 11.95 17.614 2.5263 1.0464 2.9054 1.635 2.662 4.1329-0.63559 6.524-6.9056 3.5555-12.21-5.7806-4.0915-7.2016-8.2303-8.4082-8.2303-2.3992 0 2.15 8.7366 12.878 15.35 18.85 3.6354 3.2823 4.279 5.8149 1.9658 7.7347-2.419 2.0076-5.5694-0.30928-10.642-7.8259-5.7267-8.4866-7.264-10.084-9.0453-9.4007-3.6397 1.3967 4.7541 15.105 11.911 19.454 5.9765 3.631 8.3203 12.75 3.277 12.75-3.0831 0-4.4142-1.3608-10.317-10.547-4.3382-6.7513-5.6896-8.2031-7.6359-8.2031-6.8415 0 1.5055 12.754 15.856 24.228 2.2544 1.8025 1.5768 6.1584-1.0154 6.5279-2.2664 0.32307-8.9319-5.9005-13.625-12.722-2.8364-4.1225-4.1162-4.5583-5.7555-1.9596-2.5763 4.0843 3.2081 12.829 13.762 20.806 4.2745 3.2305 4.4558 6.5395 0.38401 7.0085-2.7006 0.31108-4.4659-1.1186-9.4329-7.6392-3.2404-4.254-6.2882-4.6334-6.2882-0.78294 0 2.5572 5.9516 8.9813 16.826 18.162 2.0886 1.7632 2.9098 3.1904 2.6975 4.6875-0.72623 5.1214-7.3479 1.874-13.036-6.393-3.3114-4.8129-6.4883-5.6037-6.4883-1.6151 0 4.9823 10.002 18.872 15.115 20.99 3.763 1.5587 5.6935 4.4192 4.4945 6.6596-1.3064 2.441-3.1205 2.1574-6.7861-1.0611-3.4203-3.0031-4.3863-2.8599-4.3863 0.65022 0 3.2302 2.366 7.3203 5.5434 9.5828 1.519 1.0816 3.2619 3.5377 3.8777 5.4645 3.8273 11.976 41.84 50.101 58.238 58.411 2.2331 1.1316 5.5367 3.2118 7.3414 4.6227s5.3906 3.6968 7.9688 5.0798c6.7223 3.6061 16.208 9.4486 18.082 11.138 0.88288 0.79555 2.7322 1.7277 4.1096 2.0714s4.7524 2.0769 7.5 3.8515 7.5989 4.0335 10.781 5.0197c3.1818 0.98619 7.8224 2.8068 10.312 4.0458 18.961 9.4345 66.402 19.958 66.402 14.729zm-119.06-52.662c-2.5781-1.6494-7.5611-4.9243-11.073-7.2777-3.5122-2.3534-7.7612-5.1227-9.4423-6.1539-12.241-7.5094-27.966-24.276-26.457-28.21 1.2722-3.3153 5.2589-1.3244 13.461 6.7221 8.795 8.6284 14.683 13.213 26.218 20.417 17.838 11.14 16.669 10.176 16.669 13.74 0 4.5073-3.1238 4.7613-9.375 0.76211zm-8.9062-28.615c-18.278-6.2869-47.545-32.357-39.703-35.366 2.0927-0.80305 4.6819 0.90684 13.252 8.7516 8.4329 7.7194 13.725 11.453 25.988 18.336 6.3453 3.5613 7.9638 4.9026 7.9638 6.5998 0 1.6397-2.002 3.6902-3.1236 3.1992-0.08673-0.038-2.0561-0.72202-4.3764-1.5201zm-7.68-20.148c-30.379-22.675-35.417-27.443-32.295-30.564 2.4498-2.4498 6.8895 0.4679 22.14 14.55 2.921 2.6972 7.1796 5.563 9.4636 6.3683 2.2839 0.80531 5.6292 2.8428 7.4339 4.5278s5.0742 4.2041 7.2656 5.5981c5.7681 3.6692 5.37 8.1329-0.72538 8.1329-0.95916 0-6.9364-3.8756-13.283-8.6126zm-2.3871-18.136c-1.5581-0.65513-3.115-1.6477-3.4599-2.2057s-6.519-5.5085-13.72-11.001c-13.214-10.079-15.517-12.872-13.055-15.838 1.9161-2.3087 3.1817-1.6952 11.839 5.7393 10.023 8.6073 15.157 12.238 18.486 13.073 4.9309 1.2376 8.4826 9.9225 4.4852 10.968-0.95814 0.25055-3.0169-0.0804-4.575-0.73558zm-0.90152-18.212c-19.357-11.803-30.989-23.331-27.281-27.039 2.0306-2.0306 3.5335-1.2119 11.431 6.227 4.2928 4.0436 10.501 8.962 13.796 10.93 9.707 5.7969 10.805 7.2392 7.7994 10.245-1.8648 1.8648-2.118 1.8488-5.7453-0.36287zm4.8748-11.471c-1.0312-0.5845-4.1552-3.1316-6.9421-5.6602s-7.5982-6.3163-10.692-8.4171c-11.509-7.8155-14.919-12.344-11.71-15.553 1.9814-1.9814 3.6006-1.2424 9.503 4.3371 3.178 3.0041 7.2548 6.4461 9.0595 7.6488s4.6628 3.4782 6.3513 5.0568 4.8526 3.7264 7.0312 4.7731c2.6958 1.2951 4.0591 2.5933 4.2675 4.064 0.58692 4.1402-2.8603 6.0225-6.8688 3.7506zm-4.2563-21.146c-5.2298-3.9961-11.856-8.9531-14.726-11.016-6.3306-4.5506-7.6565-6.3962-6.2299-8.6719 1.9042-3.0376 4.6414-2.4218 9.868 2.2202 5.4574 4.847 18.033 14.348 22.424 16.942 3.2263 1.9058 4.3267 4.501 2.7263 6.4295-2.0399 2.458-4.4342 1.4527-14.063-5.9044zm169.43 169.38c1.4515-0.55767 7.2044-2.2049 12.784-3.6605 11.156-2.9103 11.427-3.041 10.625-5.1288-0.37104-0.9669-1.7864-1.4467-4.2676-1.4467-3.3331 0-6.6846-1.8071-6.6445-3.5826 0.0542-2.4024 1.9078-3.2283 5.9898-2.6688 4.1574 0.56984 4.3906 0.47213 6.4206-2.6911 3.2328-5.0375 6.794-4.3276 6.794 1.3543 0 5.8004 1.3629 5.7096 8.2809-0.55162 14.722-13.325 20.633-18.491 25.232-22.055 7.4043-5.7377 11.753-10.033 15.937-15.742 2.0784-2.8359 5.1661-6.6328 6.8616-8.4375 1.6954-1.8047 4.4845-5.2544 6.1979-7.6661s5.6585-7.4742 8.7669-11.25 6.6648-8.3417 7.9032-10.146c1.8732-2.7298 10.368-12.729 15.976-18.805 0.77344-0.83793 3.5156-4.3687 6.0938-7.8462 2.5781-3.4775 6.6914-8.5421 9.1406-11.255 7.4013-8.1972 6.2338-9.4096-5.5766-5.7913-10.37 3.1771-11.345 3.3337-12.452 2-3.1066-3.7433 6.1742-8.3304 17.325-8.5632 4.125-0.0862 8.2059-0.2035 9.0687-0.26085 2.4612-0.16362 7.2315-4.6586 9.3491-8.8095 1.0611-2.08 4.734-6.8093 8.162-10.51 3.428-3.7002 8.7639-9.8074 11.858-13.571 3.0938-3.7641 7.783-9.2122 10.42-12.107 2.6375-2.8947 5.9123-7.0561 7.2774-9.2475 1.365-2.1914 2.8204-3.9844 3.2342-3.9844 0.41381 0 4.1683-4.1133 8.3433-9.1406 4.175-5.0274 11.897-13.781 17.16-19.453 5.2631-5.6719 14.687-16.208 20.942-23.413 6.2549-7.2055 15.275-17.145 20.044-22.087 11.94-12.372 11.347-16.093-1.3439-8.4387-10.277 6.1983-15.772 7.1482-15.128 2.6152 0.40461-2.8493 9.1033-7.2709 14.296-7.2668 8.8308 7e-3 16.619-3.4361 24.799-10.964 10.373-9.5446 10.311-12.942-0.14414-7.9507-8.2951 3.9599-15.138 5.7659-27.401 7.2322-5.0488 0.60363-9.7108 4.693-21.33 18.71-4.9534 5.9756-18.066 20.627-37.266 41.641-11.658 12.759-26.631 30.036-34.685 40.022-2.3203 2.8768-8.5849 10.262-13.921 16.412-12.293 14.167-12.252 15.679 0.3276 12.082 9.294-2.6578 14.76-2.5686 14.362 0.23437-0.42215 2.9724-8.38 5.4893-19.05 6.0249-12.359 0.6204-13.427 1.257-20.951 12.487-1.2104 1.8067-3.6121 4.7614-5.3372 6.5661s-4.1097 4.6113-5.2993 6.2369c-3.6271 4.9567-16.708 21.962-25.132 32.671-4.3828 5.5719-9.0234 11.517-10.312 13.212-6.7636 8.8909-11.296 14.264-16.042 19.018-2.8931 2.8981-12.54 12.979-21.437 22.403-8.8971 9.4235-17.921 18.158-20.052 19.41-2.1316 1.2519-5.985 4.4399-8.5631 7.0843s-6.7969 5.8855-9.375 7.2024c-6.3021 3.2191-16.083 10.257-16.78 12.074-2.7443 7.1516 1.0824 10.657 8.5162 7.8009zm60.599-52.076c-2.0365-3.1081 0.76026-5.9727 5.8312-5.9727 2.9448 0 5.4048-2.8358 3.8279-4.4127-1.0036-1.0036 1.3705-4.0248 3.1627-4.0248 5.4507 0 4.608 11.385-1.1407 15.412-3.5107 2.459-9.765 1.9226-11.681-1.0017zm53.585-68.234c-2.5317-1.8794-1.0153-4.2212 3.8228-5.9035 5.2721-1.8332 10.258-1.282 10.258 1.1341 0 3.534-10.812 7.1962-14.081 4.7694zm20.409-30.199c-4.5322-1.9633 3.4322-6.5363 13.913-7.9888 14.675-2.0336 13.183 4.1333-1.597 6.6018-3.0356 0.50701-6.785 1.1407-8.3318 1.4082-1.5469 0.26751-3.3398 0.25794-3.9844-0.0213zm27.188-28.16c-2.3127-0.93319-1.1854-3.8465 2.0897-5.4007 9.7202-4.6126 17.363-5.7041 17.363-2.4798 0 4.0868-14.399 9.9198-19.453 7.8804zm14.118-17.788c-1.3812-3.5992 4.319-6.6826 12.63-6.8318 7.9079-0.14195 6.0629 4.6634-2.6843 6.9914-6.6255 1.7633-9.2237 1.7216-9.9456-0.15958zm-108.56 107.33c5.811-5.1021 4.6208-6.4237-7.9832-8.8653-5.9297-1.1487-12.891-3.0121-15.469-4.141-4.2977-1.8819-12.426-4.8341-25.781-9.3638-2.8359-0.96186-8.1094-2.8651-11.719-4.2294-3.6094-1.3643-8.321-3.0478-10.47-3.7409-7.1884-2.3184-22.268-8.1316-25.605-9.8707-9.5512-4.978-34.949-16.966-39.689-18.735-2.9985-1.1185-8.1984-3.8754-11.555-6.1265-3.3569-2.251-9.9739-5.867-14.704-8.0354s-10.921-5.5049-13.757-7.4145-8.3203-5.2897-12.188-7.5114c-3.8672-2.2217-7.875-4.7581-8.9062-5.6365s-3.3516-2.3384-5.1562-3.2445c-3.2879-1.6508-4.9002-2.8375-13.558-9.9798-2.5586-2.1107-8.043-6.0438-12.187-8.7404-4.3374-2.822-11.386-8.8376-16.607-14.174-31.445-32.138-37.373-39.654-38.845-49.251-0.34427-2.2455-1.2001-5.222-1.9018-6.6144-3.639-7.2204 0.22292-13.534 11.265-18.416 5.8478-2.5855 7.6972-2.5458 9.4987 0.20365 1.3002 1.9843 2.3935 2.2924 10.1 2.8466 11.67 0.83913 25.313 2.7846 47.548 6.7804 10.776 1.9365 34.561 8.4105 40.581 11.046 2.6883 1.1768 9.5285 3.4915 15.2 5.1438 21.933 6.3894 33.279 10.413 45.548 16.155 7.0046 3.2778 13.966 6.4827 15.469 7.1219 8.3537 3.5526 11.111 7.3755 6.7306 9.3303-2.1617 0.96457-6.918-0.98141-30.248-12.375-8.4441-4.124-17.285-7.041-50.625-16.703-47.464-13.756-61.185-16.085-91.181-15.476-15.042 0.3052-15.436 0.36494-17.257 2.6154-2.1123 2.6106-0.06063 5.4823 2.9426 4.1189 9.7405-4.422 52.467 0.81166 88.621 10.855 3.6094 1.0027 12.891 3.5682 20.625 5.7011 32.434 8.9442 45.467 14.273 44.035 18.004-1.0592 2.7603-3.7197 2.7444-9.9691-0.0595-3.3247-1.4917-6.8653-2.9407-7.868-3.2202-1.0028-0.27941-8.1513-2.3963-15.886-4.7041-47.128-14.063-106.49-23.83-118.06-19.428-7.7316 2.9395-1.3907 6.6866 9.222 5.4496 9.3485-1.0897 26.587 0.77856 36.186 3.9216 2.8359 0.92862 7.2656 1.9754 9.8438 2.3263 9.9375 1.3524 38.65 8.8228 43.672 11.362 1.332 0.6737 5.1289 1.8548 8.4375 2.6246 11.292 2.6274 26.119 8.959 26.736 11.417 1.4972 5.9651-4.2815 5.3618-20.222-2.1112-3.1974-1.4989-7.4312-2.5721-11.25-2.8516-3.6692-0.26854-7.4292-1.1954-9.3817-2.3126-1.7922-1.0254-5.8-2.4196-8.9062-3.0981-3.1063-0.67855-8.6009-1.8799-12.21-2.6696-6.379-1.3958-22.648-4.6537-40.781-8.1667-11.547-2.2369-22.335-2.3895-23.126-0.3271-1.0243 2.6692 1.9517 4.2941 8.7135 4.7576 10.244 0.7021 50.184 9.0731 61.741 12.94 3.6182 1.2107 8.477 2.6921 10.797 3.292 22.836 5.9041 41.25 13.028 41.25 15.958 0 3.8839-3.0788 3.9833-13.316 0.42971-14.286-4.959-23.486-7.8353-28.072-8.7759-7.2125-1.4792-20.779-4.7862-27.05-6.5935-3.3516-0.966-8.1285-2.0355-10.615-2.3766-2.4869-0.34116-8.5508-1.6675-13.475-2.9474-9.836-2.5564-13.701-2.6041-14.162-0.17475-0.50716 2.6758 3.7666 4.4818 16.305 6.8903 18.249 3.5054 58.357 14.683 67.425 18.791 2.0577 0.93215 5.6396 2.3513 7.96 3.1537 3.7383 1.2927 4.2188 1.7792 4.2188 4.2714 0 3.7842-3.4255 4.1839-9.5323 1.1123-5.0991-2.5648-9.5348-3.9226-30.311-9.279-30.367-7.8289-30.012-7.7534-31.628-6.7343-4.64 2.9268-1.8456 4.9345 12.015 8.6324 16.82 4.4875 27.915 7.5586 32.738 9.0619 2.3203 0.72334 6.75 1.8106 9.8438 2.4161 10.666 2.0875 15.618 4.452 15.288 7.2999-0.43365 3.7476-13.642 1.8848-34.976-4.9325-8.5092-2.7192-10.781-2.9636-10.781-1.1597 0 3.5365 14.995 10.507 31.406 14.598l6.5625 1.6361v3.5649c0 3.4301 0.21276 3.6678 5.625 6.2833 3.0938 1.4951 7.1016 3.5611 8.9062 4.591 6.7911 3.8757 52.18 25.993 55.617 27.101 1.9719 0.63585 7.834 3.2452 13.027 5.7986 10.676 5.2492 14.794 6.4602 14.794 4.3498 0-0.74975-2.149-2.3697-4.7754-3.5999-7.4486-3.4887-9.4809-9.3338-3.2453-9.3338 2.2948 0 13.543 8.6838 18.802 14.515 4.5194 5.0116 18.32 11.702 21.568 10.456 2.6746-1.0263-0.0446-3.9275-10.832-11.557-5.6932-4.0265-11.703-8.2798-13.356-9.4517-7.2503-5.1415-11.36-11.639-8.911-14.088 2.0502-2.0502 4.3202-1.1794 11.241 4.3125 3.7689 2.9906 10.465 8.2252 14.88 11.632 4.4151 3.4072 11.582 10.255 15.927 15.218 7.8632 8.9808 12.101 11.665 18.637 11.807 0.80876 0.0175 3.1319 0.81752 5.1626 1.7778 4.4832 2.1201 5.5132 1.7935 8.2176-2.6058 1.1572-1.8824 5.4903-7.6414 9.629-12.798 4.1387-5.1562 8.774-11.062 10.301-13.125 1.5266-2.0625 3.9521-4.9426 5.39-6.4002s2.6144-3.1924 2.6144-3.8551c0-5.466-31.411-35.13-49.199-46.463-11.371-7.2447-13.937-10.008-11.744-12.65 1.6853-2.0307 3.8193-1.1695 13.13 5.299 4.3828 3.0448 9.8672 6.7594 12.188 8.2549 2.3203 1.4954 8.0114 5.9702 12.647 9.9439 4.6354 3.9737 10.012 8.2246 11.947 9.4465s6.5538 5.8039 10.263 10.182c3.7088 4.3784 7.2673 7.9607 7.9076 7.9607 1.6798 0 4.1107-2.6797 4.1107-4.5314 0-2.186-26.107-26.745-36.451-34.291-1.3503-0.98494-4.9244-3.6838-7.9425-5.9976-3.018-2.3137-9.979-6.8721-15.469-10.13-5.4898-3.2576-12.724-7.8088-16.075-10.114-3.3516-2.3049-10.734-6.5927-16.406-9.5284-5.6719-2.9357-10.945-5.8821-11.719-6.5477-1.1921-1.0258-5.9967-3.8787-14.531-8.6284-1.0312-0.57392-6.9375-3.4418-13.125-6.373s-15.469-7.3648-20.625-9.8524c-12.235-5.9026-19.996-9.3903-22.938-10.308-1.3058-0.40725-8.4914-2.9103-15.968-5.5623-20.682-7.3362-34.802-11.973-38.438-12.622-1.8047-0.32219-6.6562-1.6027-10.781-2.8456-10.865-3.2738-27.843-7.1521-37.031-8.4593-4.3828-0.62354-12.387-1.8788-17.786-2.7894-54.432-9.18-74.979 22.11-37.975 57.829 2.7898 2.6929 5.5469 6.0417 6.1268 7.4418 1.5271 3.6868 27.18 27.379 40.039 36.978 18.776 14.017 20.258 15.087 24.595 17.764 2.3203 1.4321 6.5391 4.3743 9.375 6.5382s8.5312 5.7537 12.656 7.9772c4.125 2.2236 8.1328 4.577 8.9062 5.2299 6.15 5.1915 44.943 25.518 72.656 38.069 10.219 4.6282 37.415 15.028 47.344 18.104 2.8359 0.87863 8.1094 2.7818 11.719 4.2292 6.3927 2.5636 9.2542 3.4487 25.781 7.9743 4.3828 1.2002 9.8672 2.8175 12.188 3.5942 5.8249 1.9497 6.0674 1.915 9.8582-1.4134zm-21.298-42.151c-3.3081-4.1224-15.536-13.357-22.062-16.662-6.6055-3.3448-9.2678-9.9957-3.9723-9.9237 9.9779 0.13571 38.135 26.136 31.911 29.467-2.5323 1.3553-2.4411 1.4-5.8768-2.8815zm2.3954-15.206c-3.5332-2.7474-9.799-7.1626-13.924-9.8115-15.286-9.8162-18.416-13.393-12.332-14.091 6.5416-0.75124 39.145 23.99 36.235 27.497-1.8289 2.2037-3.1215 1.7382-9.9784-3.5938zm10.517-6.5802c-2.0985-2.2415-10.02-8.1587-17.603-13.149-15.284-10.059-15.31-10.082-13.879-12.756 2.0977-3.9196 7.4819-1.5121 22.042 9.8561 2.0625 1.6104 5.696 4.0389 8.0746 5.3967 8.2492 4.7092 12.446 11.588 8.3933 13.757-2.6655 1.4265-2.8691 1.3366-7.0274-3.105zm13.029-8.091c-1.5639-1.0023-3.7913-3.1046-4.95-4.6717-1.1586-1.5671-2.7427-2.8493-3.5201-2.8493-0.77745 0-5.9328-3.145-11.456-6.9888-5.5235-3.8438-11.625-8.0586-13.558-9.3661-2.3614-1.5968-3.5156-3.0881-3.5156-4.5424 0-4.7195 4.6971-5.8568 9.0687-2.1959 1.4575 1.2206 7.5016 5.4086 13.431 9.3068 17.68 11.623 23.679 18.099 20.089 21.688-1.855 1.855-2.1298 1.8363-5.5889-0.38079zm53.1 70.709c5.062-2.6177 10.051-12.372 7.2225-14.121-1.9894-1.2295-12.628 11.679-11.674 14.165 0.67511 1.7593 0.96887 1.7563 4.4512-0.0444zm148.34-218.46c4.5225-1.8438 11.469-3.955 15.436-4.6914 14.03-2.6046 15.343-3.1023 20.291-7.6899 7.7215-7.1603 9.8916-10.281 9.279-13.344-0.49971-2.4985-0.27282-2.7374 3.5549-3.7437 4.1259-1.0847 15.807-11.203 15.807-13.692 0-2.7246-1.7993-2.3978-15.919 2.8917-2.3101 0.86541-6.3179 1.7964-8.9062 2.069-13.391 1.41-26.534 9.4013-28.251 17.178-0.96581 4.3728-1.2695 4.771-4.7452 6.2233-6.1945 2.5882-19.489 18.152-15.505 18.152 0.40474 0 4.4361-1.5086 8.9586-3.3524zm14.681-17.294c-2.5701-1.6998 9.7444-8.1046 20.695-10.763 3.1943-0.77559 5.1813 1.4177 3.7341 4.1218-1.905 3.5595-21.169 8.7971-24.429 6.6416zm27.481-27.116c2.9974-1.0931 9.9583-2.604 15.469-3.3576 13.451-1.8394 13.72-1.9199 17.502-5.2406 5.0789-4.4593 3.5995-7.5347-2.704-5.6214-1.5971 0.48476-6.4897 1.9705-10.873 3.3016s-11.489 3.014-15.792 3.7397c-8.1729 1.3784-14.28 4.8447-15.002 8.5147-0.40546 2.0621 3.2588 1.6326 11.4-1.3363zm16.904-15.46c7.2162-2.6121 10.636-3.3404 15.684-3.3404 9.6262 0 17.744-4.5016 17.744-9.8398 0-1.0705-6.7431 0.22023-14.341 2.745-3.7139 1.2341-10.128 2.9408-14.253 3.7925-15.198 3.1384-20.31 5.6692-18.895 9.3554 0.76175 1.9851 1.4493 1.8525 14.061-2.7127zm8.5841-12.18c7.7469-3.144 18.339-6.2351 19.31-5.6351 0.44182 0.27306 2.3951 0.098 4.3406-0.38897 1.9455-0.48699 4.6649-1.1386 6.0431-1.4479 3.3343-0.74844 8.2754-4.9928 8.2754-7.1086 0-2.9774-2.6066-2.8535-12.429 0.59103-5.2812 1.852-12.133 3.9386-15.227 4.6368-12.055 2.7209-20.156 6.6505-20.156 9.7768 0 2.534 2.8585 2.4108 9.8438-0.42411zm9.6352-13.244c6.3686-4.4608 15.601-7.2592 24.664-7.4763 12.094-0.28967 17.587-2.6833 13.653-5.9487-3.5463-2.9432-39.171 5.3337-42.797 9.9433-3.5539 4.518-0.44637 6.9327 4.4807 3.4817zm13.835-13.984c4.2223-1.8673 7.8103-2.5007 18.44-3.2554 10.092-0.71651 13.608-1.3082 14.941-2.5144 4.4249-4.0045 0.77356-5.6567-8.2397-3.7284-3.5329 0.75583-10.22 1.6433-14.861 1.9721-12.105 0.85778-18.665 4.1126-17.005 8.4382 0.69054 1.7996 0.55013 1.8186 6.7248-0.91217zm15.905-13.259c4.2892-0.86592 11.341-1.4534 16.471-1.3724 10.722 0.16936 13.997-1.4575 13.997-6.9522 0-2.8 0.38115-3.2649 3.5156-4.288 2.5144-0.82071 7.2624-4.913 16.672-14.37 14.461-14.533 34.97-33.948 47.244-44.724 4.3453-3.8148 12.393-11.366 17.885-16.78s12.394-11.902 15.34-14.418c2.9459-2.516 5.2008-5.0473 5.0108-5.625-0.54362-1.653-4.412-1.8144-6.1353-0.25607-1.9985 1.8073-20.387 8.3814-28.838 10.31-13.531 3.0877-11.966 1.9233-46.198 34.364-14.047 13.312-49.498 48.434-59.429 58.876-0.6382 0.67112-2.1767 1.9739-3.4189 2.895-4.8117 3.5681-2.1364 4.3619 7.8835 2.3391zm7.129-4.9678c-3.7647-2.3838 1.0501-5.1799 11.796-6.8506 13.118-2.0395 11.722 2.6694-1.7083 5.7617-9.8286 2.263-8.4662 2.1159-10.088 1.0889zm85.357-78.723c-3.8639-2.4486 0.25402-5.5579 10.584-7.9919 12.846-3.0268 12.356 1.764-0.62991 6.1584-8.8438 2.9926-8.2872 2.8901-9.9544 1.8336zm11.318-20.373c5.6364-2.9147 19.049-7.1463 23.696-7.4758 13.18-0.93441 16.804-2.2179 24.609-8.7149 8.7874-7.3143 5.1634-7.3321-16.641-0.0817-2.8359 0.94302-7.4428 1.98-10.238 2.3044-6.6174 0.76816-14.894 2.9424-16.827 4.4202-11.837 9.051-14.557 14.697-4.6002 9.5478zm25.571-19.848c8.2663-3.3565 17.617-5.6728 25.08-6.2127 8.3935-0.6072 11.888-1.9346 17.108-6.4992 5.9355-5.1903 3.6951-6.151-7.2002-3.0875-4.8055 1.3512-11.901 2.8892-15.769 3.4179-15.343 2.0972-17.256 2.729-23.33 7.7033-8.9124 7.2989-7.1845 9.265 4.1115 4.6783zm17.7-16.619c4.9965-2.0876 15.874-4.1975 21.971-4.2614 11.278-0.11827 18.893-2.7632 19.695-6.8404 0.39033-1.9847-3.4986-2.0233-12.465-0.12393-3.5955 0.76163-11.182 1.8492-16.86 2.4167-12.729 1.2725-19.593 4.6244-17.996 8.7872 0.68885 1.7951 1.4043 1.7978 5.6551 0.0217zm19.792-14.998c10.773-3.3459 18.332-3.959 22.978-1.8639l3.7035 1.67 4.3501-3.6476c2.3926-2.0061 7.8345-6.1788 12.093-9.2726 4.2587-3.0938 9.5889-7.0146 11.845-8.7129 5.6282-4.237 17.994-12.381 18.8-12.381 0.36223 0 4.3753-2.4989 8.918-5.553 4.5426-3.0542 10.751-6.5447 13.796-7.7568 8.2286-3.2751 9.9717-8.5494 2.0719-6.269-7.1942 2.0767-21.594 3.8353-31.101 3.7979-12.601-0.04947-18.498 2.9317-38.794 19.611-2.8772 2.3645-6.2822 4.8588-7.5667 5.5428-2.8252 1.5045-8.473 5.8115-13.677 10.43-2.1129 1.8753-7.0699 5.797-11.016 8.715-10.834 8.0122-9.6924 9.8173 3.5984 5.6893zm45.982-33.597c-3.3855-2.4755 0.54842-4.7476 14.832-8.5661 8.342-2.2301 10.914-2.2368 10.914-0.02813 0 1.9836-1.9066 2.9687-12.552 6.4857-11.745 3.8801-10.945 3.7522-13.193 2.1085zm153.84-5.5661c2.2619-1.284 9.1117-9.4276 12.276-14.594 3.7777-6.1689 2.5237-11.489-4.2356-17.971-2.4315-2.3316-6.4356-6.4764-8.8981-9.2107-4.9917-5.5427-6.9207-5.8377-6.4871-0.992 0.84872 9.4839 0.20015 16.197-2.2375 23.164-4.2206 12.062 1.6634 24.099 9.5826 19.604zm-120.92-17.564c8.74-1.9514 10.475-2.0449 22.476-1.211 13.667 0.9497 21.888-0.80091 23.501-5.0042 0.87668-2.2846-0.26611-2.5029-12.128-2.3172-8.0092 0.12539-13.195-0.27027-17.106-1.3051-6.728-1.7802-7.9195-1.531-18.762 3.9241-9.5202 4.7896-16.193 11.382-8.5533 8.4506 0.60544-0.23233 5.3629-1.374 10.572-2.5371zm65.05-14.062c6.4686-3.3 3.8107-5.6059-6.4615-5.6059-7.3965 0-9.5133-0.54898-9.5133-2.4673 0-3.8907 13.714-3.4787 25.513 0.76648 5.7493 2.0685 8.5671 1.7634 8.0593-0.87289-0.2144-1.1133-2.0267-2.095-5.6302-3.0497-6.4585-1.7111-7.2758-3.1837-1.9803-3.5685 2.6118-0.18981 6.0088 0.54571 10.124 2.1921 6.2265 2.491 8.914 2.5342 8.914 0.14331 0-5.4135-22.553-9.5593-31.551-5.7997-1.8511 0.77344-4.4743 1.4151-5.8293 1.426-3.4224 0.02747-14.64 4.1027-18.744 6.8095-1.8737 1.2357-5.184 2.4828-7.3562 2.7711-5.08 0.6744-11.051 3.5918-11.051 5.3996 0 1.1959 2.5241 1.4144 16.875 1.4606 11.02 0.03547 17.526 0.43221 18.75 1.1434 2.7616 1.604 5.708 1.381 9.8811-0.748z"/>
</svg>
