<?xml version='1.0' encoding='utf-8'?>
<svg xmlns="http://www.w3.org/2000/svg" version="1.1" width="600px" height="976px" viewBox="0 0 600 976"> <g id="layer1"> <g style="fill:rgb(255,213,68); fill-opacity:1.0; stroke-linejoin: miter"> <path d="M274.38437,602.2241Q272.93298,602.245,271.9166,603.2335Q270.90878,604.25916,270.88342,605.6961Q270.89716,607.13367,271.89377,608.16675Q272.92966,609.1774,274.35254,609.1989Q275.804,609.18005,276.8219,608.1927Q277.83112,607.1681,277.8582,605.7312Q277.84616,604.29364,276.85098,603.25946Q275.81665,602.2477,274.3938,602.2242"/> </g> <g style="fill:rgb(181,94,40); fill-opacity:1.0; stroke-linejoin: miter"> <path d="M274.38373,602.39716Q273.00348,602.4172,272.03754,603.35724Q271.0801,604.3324,271.05643,605.698Q271.06992,607.06415,272.0177,608.04596Q273.00296,609.0065,274.3563,609.02594Q275.73654,609.00665,276.703,608.0669Q277.66095,607.09216,277.6852,605.7265Q277.67227,604.3603,276.725,603.3782Q275.7403,602.41736,274.38696,602.3972"/> </g> <g style="fill:rgb(255,213,68); fill-opacity:1.0; stroke-linejoin: miter"> <path d="M274.3827,602.6505Q273.1087,602.6688,272.21658,603.53656Q271.332,604.43677,271.3097,605.6981Q271.32172,606.95984,272.1966,607.8667Q273.1058,608.7539,274.35477,608.77277Q275.62878,608.75616,276.52234,607.88947Q277.40814,606.9902,277.4319,605.7289Q277.42136,604.46704,276.5478,603.55927Q275.63992,602.6712,274.391,602.6506"/> </g> <g style="fill:rgb(181,94,40); fill-opacity:1.0; stroke-linejoin: miter"> <path d="M272.0593,606.1622L276.69794,606.09546L275.7798,607.03766L273.004,607.0781L272.06,606.1628 M271.792,605.94727Q271.72372,605.9508,271.69345,606.01263Q271.66867,606.07355,271.71036,606.1276L272.8833,607.2675Q272.92197,607.3009,272.96603,607.2976L275.82626,607.25586Q275.8486,607.25555,275.8619,607.2509Q275.89142,607.2407,275.90768,607.2232L277.04477,606.05206Q277.09665,605.98334,277.04526,605.9109Q277.00882,605.8708,276.95938,605.8718L271.7983,605.94714"/> </g> <g style="fill:rgb(181,94,40); fill-opacity:1.0; stroke-linejoin: miter"> <path d="M274.34262,604.873Q273.55817,604.88605,272.8876,605.22186Q272.46167,605.4249,271.75418,605.9515Q271.6635,606.05774,271.77753,606.1356Q271.83133,606.1568,271.87994,606.129Q272.72174,605.5017,273.21027,605.3166Q273.74237,605.1002,274.35855,605.09155Q274.97424,605.08594,275.52014,605.2963Q275.77255,605.39276,276.0493,605.5446Q276.33148,605.69617,276.88165,606.06165Q276.91568,606.0785,276.94083,606.07556Q277.01273,606.0692,277.03937,606.0005Q277.05905,605.932,277.00522,605.8821Q276.2721,605.388,275.8516,605.19934Q275.15063,604.8639,274.34647,604.8729"/> </g> <g style="fill:rgb(181,94,40); fill-opacity:1.0; stroke-linejoin: miter"> <path d="M274.03708,606.0657Q274.08435,606.27875,274.03708,606.0658 M276.277,605.90295Q276.17657,605.9042,276.09073,605.99005Q276.06644,605.9961,275.80872,606.3634Q275.7523,606.4339,275.72464,606.4433Q275.71066,606.4377,275.66916,606.38055Q275.4729,606.06537,275.43542,606.0418Q275.3775,605.98175,275.32007,605.96155L275.2835,606.06433L275.3192,605.9617Q275.2829,605.9487,275.24884,605.9499Q275.1669,605.9492,275.07605,606.03217Q275.0626,606.024,274.7724,606.40784Q274.70633,606.482,274.67123,606.47955Q274.63684,606.4767,274.5714,606.4087Q274.2691,606.0362,274.22934,606.02405Q274.11703,605.9345,274.01022,605.95953Q273.93234,605.977,273.8525,606.061Q273.83612,606.06,273.59283,606.42316Q273.53287,606.4983,273.4986,606.49884Q273.45007,606.4961,273.3664,606.42694Q273.01624,606.0897,273.00723,606.0956Q272.92252,606.031,272.84967,606.0089Q272.70386,605.96356,272.55902,606.0473Q272.42197,606.1239,272.25458,606.34973L271.86182,605.971Q271.8159,605.9369,271.7626,605.95166Q271.64713,606.0059,271.70395,606.11945L272.19348,606.59503Q272.20844,606.60913,272.2265,606.6167Q272.28635,606.63916,272.3359,606.6027Q272.53622,606.3405,272.59573,606.2914Q272.68704,606.20654,272.7563,606.213Q272.80673,606.2143,272.88837,606.28015Q273.26263,606.6418,273.29144,606.6438Q273.40228,606.71924,273.50098,606.7177Q273.60754,606.718,273.71225,606.6166Q273.75446,606.5938,273.98825,606.2386Q274.03888,606.17365,274.05966,606.17365Q274.0848,606.17883,274.1434,606.2422Q274.4166,606.5805,274.44836,606.59375Q274.55463,606.68787,274.65112,606.6974Q274.76904,606.7075,274.88544,606.6032Q274.9388,606.572,275.1881,606.23083Q275.22952,606.18195,275.2504,606.17114Q275.26724,606.1732,275.31287,606.2359Q275.50568,606.5437,275.52466,606.55096Q275.6011,606.6389,275.67917,606.65765Q275.72247,606.66797,275.77063,606.6574L275.7462,606.5509L275.7712,606.6571Q275.83292,606.64386,275.90506,606.5798Q275.95328,606.53656,276.00845,606.4646Q276.23938,606.1279,276.2608,606.13135Q276.26306,606.1288,276.24597,606.1349Q276.26685,606.1295,276.2744,606.1228Q276.32755,606.12396,276.49878,606.445Q276.54816,606.4912,276.60828,606.4748Q276.68652,606.4466,276.68744,606.3647Q276.68658,606.34344,276.6772,606.3231L276.59723,606.1756Q276.44705,605.90155,276.27866,605.90295"/> </g> <g style="fill:rgb(181,94,40); fill-opacity:1.0; stroke-linejoin: miter"> <path d="M273.99802,605.2292L273.73157,605.2338Q273.67828,605.53174,273.73248,605.5306Q273.75906,605.5304,273.8206,605.46045Q273.8721,605.4033,273.99783,605.22943"/> </g> <g style="fill:rgb(181,94,40); fill-opacity:1.0; stroke-linejoin: miter"> <path d="M274.74875,605.2311L275.01514,605.237Q275.06714,605.53503,275.01294,605.5336Q274.98633,605.5333,274.92505,605.46313Q274.87384,605.40564,274.7489,605.23126"/> </g> <g style="fill:rgb(181,94,40); fill-opacity:1.0; stroke-linejoin: miter"> <path d="M274.60223,605.2306L274.2426,605.24Q274.35287,605.4331,274.42523,605.43085Q274.46124,605.43024,274.5023,605.38403Q274.53772,605.34564,274.60205,605.2309"/> </g> <g style="fill:rgb(181,94,40); fill-opacity:1.0; stroke-linejoin: miter"> <path d="M274.3293,602.83026C274.3255,602.83044,274.33173,602.84985,274.34348,602.876C274.38916,602.97266,274.4075,603.04736,274.40967,603.14185C274.41153,603.21674,274.40884,603.23553,274.39307,603.28296C274.3629,603.3712,274.3321,603.41736,274.2325,603.523C274.18158,603.577,274.12552,603.64,274.1086,603.6629C273.98587,603.82513,273.93274,604.0327,273.96915,604.20685C273.9756,604.23676,273.98508,604.2711,273.9905,604.2838C273.9939,604.2914,273.99612,604.29596,273.99783,604.29584C274.00082,604.29584,274.0021,604.2812,274.00488,604.2424C274.01804,604.0727,274.0605,603.9513,274.1544,603.8128C274.1727,603.78564,274.23975,603.70886,274.30246,603.642C274.41757,603.51874,274.45132,603.47174,274.4831,603.38885C274.5315,603.26447,274.52264,603.1259,274.45923,602.9971C274.4299,602.9399,274.3504,602.8369,274.33005,602.83044C274.32983,602.8303,274.32956,602.83026,274.3294,602.83026 Z M274.71436,603.3927C274.7095,603.3928,274.70764,603.4143,274.7083,603.4611C274.70972,603.6059,274.66443,603.68304,274.4481,603.90216C274.27893,604.0726,274.26566,604.087,274.23566,604.1339C274.16605,604.2406,274.14902,604.35565,274.1852,604.46826C274.19553,604.50024,274.21555,604.5426,274.23166,604.5699L274.23157,604.5699Q274.23193,604.57166,274.2323,604.5735Q274.2729,604.6382,274.3052,604.66943Q274.35748,604.7205,274.3943,604.7366L274.4066,604.7417L274.3987,604.72943L274.39862,604.72943C274.3972,604.7255,274.39362,604.7195,274.3875,604.7111C274.36682,604.68225,274.31274,604.57733,274.30096,604.54144C274.2955,604.52515,274.28848,604.50793,274.28467,604.5043C274.27896,604.4971,274.27512,604.48535,274.27295,604.47034L274.2729,604.47034Q274.26736,604.4043,274.289,604.3386Q274.30917,604.2704,274.3697,604.1733L274.36957,604.1733C274.3895,604.1509,274.41656,604.1225,274.45526,604.0827C274.63248,603.90094,274.70737,603.7956,274.7438,603.6766C274.77167,603.5847,274.76523,603.50604,274.72247,603.40485C274.71918,603.3968,274.71646,603.3927,274.71436,603.3927 Z"/> </g> </g> </svg>